HIERARCHY
ROOT Root
{
  OFFSET 0.0 0.0 0.0
  CHANNELS 6 Xposition Yposition Zposition Zrotation Yrotation Xrotation
  JOINT Hips
  {
    OFFSET 0.0 100.0 0.0
    CHANNELS 6 Xposition Yposition Zposition Zrotation Yrotation Xrotation
    JOINT Spine1
    {
      OFFSET 5.003913 -0.037094 -0.013727
      CHANNELS 3 Zrotation Yrotation Xrotation
      JOINT Spine2
      {
        OFFSET 7.125363 -1e-06 0.0
        CHANNELS 3 Zrotation Yrotation Xrotation
        JOINT Chest
        {
          OFFSET 7.594027 1e-06 0.0
          CHANNELS 3 Zrotation Yrotation Xrotation
          JOINT Neck1
          {
            OFFSET 26.313086 -0.460272 -0.181672
            CHANNELS 3 Zrotation Yrotation Xrotation
            JOINT Neck2
            {
              OFFSET 8.045911 0.0 0.0
              CHANNELS 3 Zrotation Yrotation Xrotation
              JOINT Head
              {
                OFFSET 6.432774 0.0 0.0
                CHANNELS 3 Zrotation Yrotation Xrotation
                JOINT HeadEnd
                {
                  OFFSET 16.169773 0.06451 0.00362
                  CHANNELS 3 Zrotation Yrotation Xrotation
                }
                JOINT Jaw
                {
                  OFFSET 0.108741 3.12938 0.002639
                  CHANNELS 3 Zrotation Yrotation Xrotation
                }
                JOINT LeftEye
                {
                  OFFSET 4.45173 8.166359 3.206392
                  CHANNELS 3 Zrotation Yrotation Xrotation
                }
                JOINT RightEye
                {
                  OFFSET 4.436895 8.135758 -3.222429
                  CHANNELS 3 Zrotation Yrotation Xrotation
                }
              }
            }
          }
          JOINT LeftShoulder
          {
            OFFSET 23.218927 5.195579 1.621656
            CHANNELS 3 Zrotation Yrotation Xrotation
            JOINT LeftArm
            {
              OFFSET 15.902118 2e-06 -2e-06
              CHANNELS 3 Zrotation Yrotation Xrotation
              JOINT LeftForeArm
              {
                OFFSET 28.739307 0.0 -1e-06
                CHANNELS 3 Zrotation Yrotation Xrotation
                JOINT LeftHand
                {
                  OFFSET 27.093981 -4e-06 0.0
                  CHANNELS 3 Zrotation Yrotation Xrotation
                  JOINT LeftHandThumb1
                  {
                    OFFSET 2.276781 3.380274 0.83384
                    CHANNELS 3 Zrotation Yrotation Xrotation
                    JOINT LeftHandThumb2
                    {
                      OFFSET 4.705309 -1e-06 -1e-06
                      CHANNELS 3 Zrotation Yrotation Xrotation
                      JOINT LeftHandThumb3
                      {
                        OFFSET 2.798515 0.0 3e-06
                        CHANNELS 3 Zrotation Yrotation Xrotation
                        JOINT LeftHandThumbEnd
                        {
                          OFFSET 3.180793 4e-06 -4e-06
                          CHANNELS 3 Zrotation Yrotation Xrotation
                        }
                      }
                    }
                  }
                  JOINT LeftHandIndex1
                  {
                    OFFSET 3.247786 2.352677 0.137192
                    CHANNELS 3 Zrotation Yrotation Xrotation
                    JOINT LeftHandIndex2
                    {
                      OFFSET 6.367095 1e-06 0.0
                      CHANNELS 3 Zrotation Yrotation Xrotation
                      JOINT LeftHandIndex3
                      {
                        OFFSET 3.662364 0.0 0.0
                        CHANNELS 3 Zrotation Yrotation Xrotation
                        JOINT LeftHandIndex4
                        {
                          OFFSET 2.329242 4e-06 -4e-06
                          CHANNELS 3 Zrotation Yrotation Xrotation
                          JOINT LeftHandIndexEnd
                          {
                            OFFSET 2.767823 1e-06 0.0
                            CHANNELS 3 Zrotation Yrotation Xrotation
                          }
                        }
                      }
                    }
                  }
                  JOINT LeftHandMiddle1
                  {
                    OFFSET 3.163612 0.945023 -0.406112
                    CHANNELS 3 Zrotation Yrotation Xrotation
                    JOINT LeftHandMiddle2
                    {
                      OFFSET 6.276789 3e-06 0.0
                      CHANNELS 3 Zrotation Yrotation Xrotation
                      JOINT LeftHandMiddle3
                      {
                        OFFSET 4.35652 -1e-06 4e-06
                        CHANNELS 3 Zrotation Yrotation Xrotation
                        JOINT LeftHandMiddle4
                        {
                          OFFSET 2.996877 0.0 8e-06
                          CHANNELS 3 Zrotation Yrotation Xrotation
                          JOINT LeftHandMiddleEnd
                          {
                            OFFSET 2.323256 3e-06 -4e-06
                            CHANNELS 3 Zrotation Yrotation Xrotation
                          }
                        }
                      }
                    }
                  }
                  JOINT LeftHandRing1
                  {
                    OFFSET 2.882606 -0.309162 0.107445
                    CHANNELS 3 Zrotation Yrotation Xrotation
                    JOINT LeftHandRing2
                    {
                      OFFSET 6.033198 0.0 4e-06
                      CHANNELS 3 Zrotation Yrotation Xrotation
                      JOINT LeftHandRing3
                      {
                        OFFSET 4.350578 3e-06 0.0
                        CHANNELS 3 Zrotation Yrotation Xrotation
                        JOINT LeftHandRing4
                        {
                          OFFSET 2.651321 2e-06 -7e-06
                          CHANNELS 3 Zrotation Yrotation Xrotation
                          JOINT LeftHandRingEnd
                          {
                            OFFSET 1.937663 1e-06 -4e-06
                            CHANNELS 3 Zrotation Yrotation Xrotation
                          }
                        }
                      }
                    }
                  }
                  JOINT LeftHandPinky1
                  {
                    OFFSET 2.865315 -1.525436 0.575687
                    CHANNELS 3 Zrotation Yrotation Xrotation
                    JOINT LeftHandPinky2
                    {
                      OFFSET 5.54936 1e-06 -8e-06
                      CHANNELS 3 Zrotation Yrotation Xrotation
                      JOINT LeftHandPinky3
                      {
                        OFFSET 3.070974 0.0 -4e-06
                        CHANNELS 3 Zrotation Yrotation Xrotation
                        JOINT LeftHandPinky4
                        {
                          OFFSET 1.549672 1e-06 0.0
                          CHANNELS 3 Zrotation Yrotation Xrotation
                          JOINT LeftHandPinkyEnd
                          {
                            OFFSET 1.952123 0.0 0.0
                            CHANNELS 3 Zrotation Yrotation Xrotation
                          }
                        }
                      }
                    }
                  }
                }
              }
            }
          }
          JOINT RightShoulder
          {
            OFFSET 23.161716 5.296122 -1.380114
            CHANNELS 3 Zrotation Yrotation Xrotation
            JOINT RightArm
            {
              OFFSET -16.027195 -2e-06 1.1e-05
              CHANNELS 3 Zrotation Yrotation Xrotation
              JOINT RightForeArm
              {
                OFFSET -28.736639 4e-06 2e-06
                CHANNELS 3 Zrotation Yrotation Xrotation
                JOINT RightHand
                {
                  OFFSET -27.133619 6e-06 0.0
                  CHANNELS 3 Zrotation Yrotation Xrotation
                  JOINT RightHandThumb1
                  {
                    OFFSET -2.274328 -3.351035 -0.83067
                    CHANNELS 3 Zrotation Yrotation Xrotation
                    JOINT RightHandThumb2
                    {
                      OFFSET -4.703594 -3e-06 2e-06
                      CHANNELS 3 Zrotation Yrotation Xrotation
                      JOINT RightHandThumb3
                      {
                        OFFSET -2.794935 -4e-06 -3e-06
                        CHANNELS 3 Zrotation Yrotation Xrotation
                        JOINT RightHandThumbEnd
                        {
                          OFFSET -3.183852 4e-06 1e-06
                          CHANNELS 3 Zrotation Yrotation Xrotation
                        }
                      }
                    }
                  }
                  JOINT RightHandIndex1
                  {
                    OFFSET -3.253496 -2.33755 -0.127667
                    CHANNELS 3 Zrotation Yrotation Xrotation
                    JOINT RightHandIndex2
                    {
                      OFFSET -6.344434 0.0 0.0
                      CHANNELS 3 Zrotation Yrotation Xrotation
                      JOINT RightHandIndex3
                      {
                        OFFSET -3.654871 0.0 -8e-06
                        CHANNELS 3 Zrotation Yrotation Xrotation
                        JOINT RightHandIndex4
                        {
                          OFFSET -2.327586 -1e-06 0.0
                          CHANNELS 3 Zrotation Yrotation Xrotation
                          JOINT RightHandIndexEnd
                          {
                            OFFSET -2.770001 3e-06 8e-06
                            CHANNELS 3 Zrotation Yrotation Xrotation
                          }
                        }
                      }
                    }
                  }
                  JOINT RightHandMiddle1
                  {
                    OFFSET -3.168223 -0.944764 0.411762
                    CHANNELS 3 Zrotation Yrotation Xrotation
                    JOINT RightHandMiddle2
                    {
                      OFFSET -6.266691 -1e-06 -4e-06
                      CHANNELS 3 Zrotation Yrotation Xrotation
                      JOINT RightHandMiddle3
                      {
                        OFFSET -4.348901 0.0 0.0
                        CHANNELS 3 Zrotation Yrotation Xrotation
                        JOINT RightHandMiddle4
                        {
                          OFFSET -3.00024 2e-06 -4e-06
                          CHANNELS 3 Zrotation Yrotation Xrotation
                          JOINT RightHandMiddleEnd
                          {
                            OFFSET -2.321477 -4e-06 -4e-06
                            CHANNELS 3 Zrotation Yrotation Xrotation
                          }
                        }
                      }
                    }
                  }
                  JOINT RightHandRing1
                  {
                    OFFSET -2.885654 0.293261 -0.119232
                    CHANNELS 3 Zrotation Yrotation Xrotation
                    JOINT RightHandRing2
                    {
                      OFFSET -6.032835 -1e-06 -4e-06
                      CHANNELS 3 Zrotation Yrotation Xrotation
                      JOINT RightHandRing3
                      {
                        OFFSET -4.33881 0.0 -4e-06
                        CHANNELS 3 Zrotation Yrotation Xrotation
                        JOINT RightHandRing4
                        {
                          OFFSET -2.654903 -4e-06 -4e-06
                          CHANNELS 3 Zrotation Yrotation Xrotation
                          JOINT RightHandRingEnd
                          {
                            OFFSET -1.935122 0.0 4e-06
                            CHANNELS 3 Zrotation Yrotation Xrotation
                          }
                        }
                      }
                    }
                  }
                  JOINT RightHandPinky1
                  {
                    OFFSET -2.866241 1.503904 -0.60527
                    CHANNELS 3 Zrotation Yrotation Xrotation
                    JOINT RightHandPinky2
                    {
                      OFFSET -5.553177 -2e-06 0.0
                      CHANNELS 3 Zrotation Yrotation Xrotation
                      JOINT RightHandPinky3
                      {
                        OFFSET -3.062664 -1e-06 -4e-06
                        CHANNELS 3 Zrotation Yrotation Xrotation
                        JOINT RightHandPinky4
                        {
                          OFFSET -1.546529 2e-06 4e-06
                          CHANNELS 3 Zrotation Yrotation Xrotation
                          JOINT RightHandPinkyEnd
                          {
                            OFFSET -1.952341 0.0 -4e-06
                            CHANNELS 3 Zrotation Yrotation Xrotation
                          }
                        }
                      }
                    }
                  }
                }
              }
            }
          }
        }
      }
    }
    JOINT LeftLeg
    {
      OFFSET -8.443107 2.567604 10.043214
      CHANNELS 3 Zrotation Yrotation Xrotation
      JOINT LeftShin
      {
        OFFSET 43.229198 1e-06 -1e-06
        CHANNELS 3 Zrotation Yrotation Xrotation
        JOINT LeftFoot
        {
          OFFSET 42.298611 1e-06 1e-06
          CHANNELS 3 Zrotation Yrotation Xrotation
          JOINT LeftToeBase
          {
            OFFSET 14.165858 1e-06 0.0
            CHANNELS 3 Zrotation Yrotation Xrotation
            JOINT LeftToeEnd
            {
              OFFSET 6.7141 -0.234461 0.0
              CHANNELS 3 Zrotation Yrotation Xrotation
            }
          }
        }
      }
    }
    JOINT RightLeg
    {
      OFFSET -8.303923 2.592729 -10.047278
      CHANNELS 3 Zrotation Yrotation Xrotation
      JOINT RightShin
      {
        OFFSET -43.369682 0.0 1e-06
        CHANNELS 3 Zrotation Yrotation Xrotation
        JOINT RightFoot
        {
          OFFSET -42.260784 4e-06 2e-06
          CHANNELS 3 Zrotation Yrotation Xrotation
          JOINT RightToeBase
          {
            OFFSET -14.222245 -2e-06 -1e-06
            CHANNELS 3 Zrotation Yrotation Xrotation
            JOINT RightToeEnd
            {
              OFFSET -6.660062 0.232574 -2e-06
              CHANNELS 3 Zrotation Yrotation Xrotation
            }
          }
        }
      }
    }
  }
}
MOTION
Frames: 5
Frame Time: 0.03333333333333333
0.0 0.0 0.0 0.0 -0.0 0.0 -10.735206 46.932537 181.021088 83.527626 -50.557461 97.788742 10.287135 1.877083 -0.685514 -4.365616 0.085134 -2.113624 28.474941 6.062057 -1.388305 17.427315 -5.177493 3.235672 -2.612359 -1.071947 1.061335 -33.161381 -2.089922 1.865714 6e-06 0.0 0.0 -0.162035 -0.101675 0.092436 -0.167177 -0.161887 0.148296 -0.137672 -0.051074 0.048037 -14.944798 -65.122635 18.563023 84.009796 -7.733601 -47.126125 15.742284 0.247296 0.184739 35.710075 66.66954 35.307358 17.636637 -26.322729 52.411182 -19.46666 -14.395594 29.410385 -0.0 -8.774821 -1e-06 16.565968 -18.466856 5.687516 -0.609777 -1.795655 -3.889327 -4.807088 -11.046811 -2.93785 4e-06 -20.976019 1e-06 -5.019971 -25.03356 -4.03188 6e-06 -1e-06 2e-06 -10.634533 -5.686972 -3.565588 10.573271 -17.922953 -3.113898 3e-06 -13.821211 0.0 -0.501776 -31.181505 -4.027017 -11.27065 -59.398155 6.979795 -13.982714 -7.150199 -2.875042 13.77273 -8.401493 -3.218241 0.347734 -34.211555 0.771654 -0.963029 -17.73337 2.62102 -1e-06 0.0 -0.0 -17.346416 -20.095217 -4.201782 21.757557 -1.638376 3.866428 1e-06 -6.338825 1e-06 -1.69759 -22.591749 -6.194006 -0.0 -4e-06 -2e-06 -159.574066 -81.954597 -9.951171 85.339966 -23.91308 -33.79211 25.154308 0.074649 0.376434 59.685631 71.940857 68.484993 22.182114 -20.375883 49.933296 -16.701811 -16.743525 28.476522 -2e-06 -12.690598 -1e-06 16.492325 -17.95694 2.248219 -0.105919 -1.513856 -4.275878 -5.03904 -5.61287 -2.953556 4e-06 -11.02052 -1e-06 -6.111296 -15.89533 -3.840471 0.0 1e-06 -2e-06 -10.283368 -5.680287 -4.341835 11.028293 -11.302406 -2.372633 -1.384269 -14.238577 -6.320119 -0.625437 -26.924187 -3.827599 -3.801546 -49.040047 -4.611276 -13.708521 -7.363473 -3.720937 18.141146 -14.052738 -3.242674 5e-06 -18.78727 -2e-06 -0.429712 -8.456043 2.555504 1e-06 -1e-06 0.0 -15.923532 -20.094481 -5.473582 30.419207 -7.190823 1.735925 2e-06 -8.162922 0.0 -1.861899 -22.861467 -6.167942 -1e-06 -4e-06 -1e-06 159.470871 -6.40238 4.948289 74.625427 -1.796099 0.191239 -70.599487 1.289655 22.324316 -48.776108 1.711292 0.87495 -0.999998 -1e-06 -0.0 -64.98542 -3.578879 6.490481 127.649773 0.324914 0.34818 -87.654144 9.12394 12.173019 -46.27087 1.00123 1.256244 -1.000004 -0.0 0.0 
0.0 0.0 0.0 0.0 -0.0 0.0 -11.057362 46.967964 182.099808 82.914429 -51.461624 97.915321 10.158755 1.83626 -0.677841 -4.448441 0.015156 -2.011715 27.95771 5.940281 -1.240265 16.670479 -4.969479 3.271203 -2.620026 -0.978232 0.981868 -33.527943 -1.949352 1.801635 6e-06 0.0 -0.0 -0.173324 -0.117479 0.101364 -0.112266 -0.177322 0.165082 -0.083423 -0.069014 0.052746 -15.561184 -64.205864 18.939072 84.803291 -8.860938 -46.692722 15.652623 0.153806 0.153374 39.16589 68.427734 38.371838 17.636639 -26.322737 52.411205 -19.46666 -14.395591 29.410385 -1e-06 -8.77482 -3e-06 16.407251 -18.284286 5.747812 -0.609777 -1.795653 -3.889327 -4.807089 -11.046811 -2.93785 3e-06 -20.976015 1e-06 -5.01997 -25.033558 -4.031883 6e-06 0.0 -1e-06 -10.634535 -5.68697 -3.565589 10.573274 -17.922951 -3.113899 3e-06 -13.821209 2e-06 -0.501777 -31.181505 -4.027016 -11.19066 -59.247993 6.936481 -13.982716 -7.150197 -2.875044 13.772729 -8.401493 -3.218239 0.347733 -34.211544 0.771656 -0.963029 -17.733366 2.621021 -0.0 0.0 0.0 -17.346422 -20.095215 -4.201785 21.757557 -1.638377 3.866431 1e-06 -6.338822 1e-06 -1.697588 -22.591745 -6.194008 -0.0 -4e-06 -1e-06 -162.864212 -81.646729 -6.699668 84.498093 -25.160948 -33.830288 29.880299 0.178419 0.316846 59.776512 71.075294 70.706589 22.182117 -20.375898 49.933327 -16.701815 -16.743528 28.476536 -2e-06 -12.690601 -1e-06 16.703093 -18.101627 2.15644 -0.105918 -1.513854 -4.275881 -5.039041 -5.612872 -2.953557 4e-06 -11.020526 -2e-06 -6.111297 -15.895334 -3.840471 -0.0 -0.0 -2e-06 -10.283371 -5.680288 -4.341839 11.028293 -11.302406 -2.372635 -1.384268 -14.238585 -6.320121 -0.625437 -26.924191 -3.827602 -3.854739 -49.261333 -4.587481 -13.708527 -7.363478 -3.720939 18.141151 -14.052739 -3.242674 5e-06 -18.787273 -4e-06 -0.429712 -8.456047 2.555503 1e-06 -1e-06 1e-06 -15.923536 -20.094484 -5.473584 30.419214 -7.190828 1.735922 1e-06 -8.162929 -0.0 -1.861901 -22.861473 -6.167943 1e-06 -3e-06 -1e-06 159.769669 -7.258124 4.473495 72.410515 -1.822868 0.33706 -68.753105 1.127093 22.797596 -47.945938 1.716703 0.906036 -0.999999 -0.0 -1e-06 -64.851471 -2.555438 5.830211 126.177704 0.414929 0.399984 -84.724785 9.191722 13.003451 -46.204872 0.978077 1.214473 -1.000004 -2e-06 2e-06 
0.0 0.0 0.0 0.0 -0.0 0.0 -11.457075 47.080383 183.116882 82.744637 -52.260727 98.500748 9.923146 1.807623 -0.815921 -4.649452 -0.271415 -2.167513 27.657576 5.732734 -1.438203 16.067066 -4.316215 3.345631 -2.654533 -0.668015 0.855337 -33.624458 -1.942035 1.69019 7e-06 -0.0 0.0 -0.198018 -0.037396 0.063431 -0.112012 -0.090488 0.123642 -0.093941 0.005389 0.02405 -14.771294 -63.459206 17.972525 85.065468 -9.659082 -46.054241 15.094869 0.013444 0.141462 41.492432 69.553139 40.045982 17.636625 -26.322727 52.411186 -19.46666 -14.395598 29.410385 -0.0 -8.774821 -1e-06 16.289806 -18.162958 5.848139 -0.609776 -1.795654 -3.889327 -4.807088 -11.046811 -2.93785 4e-06 -20.976017 0.0 -5.01997 -25.03356 -4.031881 6e-06 1e-06 1e-06 -10.634533 -5.686971 -3.565587 10.573274 -17.922951 -3.1139 2e-06 -13.821208 1e-06 -0.501777 -31.181501 -4.027017 -10.88489 -59.184547 6.883531 -13.982712 -7.150197 -2.875041 13.77273 -8.401494 -3.218241 0.347733 -34.211555 0.771654 -0.963028 -17.73337 2.62102 -1e-06 0.0 -0.0 -17.346418 -20.095219 -4.201779 21.757555 -1.638377 3.866426 1e-06 -6.338824 1e-06 -1.697589 -22.591747 -6.194005 -1e-06 -5e-06 -1e-06 -169.989914 -81.656517 0.438468 83.519669 -25.832085 -34.904335 36.494617 -0.160141 0.113866 61.458221 69.119957 75.317192 22.182112 -20.375891 49.933323 -16.701817 -16.743528 28.476532 -4e-06 -12.690599 0.0 17.032499 -18.271175 2.054808 -0.10592 -1.513856 -4.275881 -5.03904 -5.612873 -2.953556 4e-06 -11.020525 -3e-06 -6.111294 -15.895332 -3.840472 1e-06 1e-06 -0.0 -10.283371 -5.680286 -4.341839 11.028296 -11.302406 -2.372632 -1.384268 -14.238581 -6.320124 -0.625434 -26.924191 -3.827604 -3.95104 -49.730427 -4.56338 -13.708521 -7.363475 -3.720941 18.14115 -14.052742 -3.242676 8e-06 -18.787271 -4e-06 -0.42971 -8.456043 2.555503 0.0 -0.0 0.0 -15.923532 -20.094482 -5.473587 30.419207 -7.190827 1.735924 1e-06 -8.162927 -0.0 -1.861899 -22.861473 -6.167942 0.0 -3e-06 -1e-06 159.518738 -7.520368 4.160254 70.831581 -2.104339 0.456234 -67.141899 0.989036 23.454716 -45.750404 1.716107 0.974281 -0.999999 1e-06 0.0 -64.569916 -2.440607 5.098027 124.715675 0.509327 0.430514 -81.645508 9.552167 13.95584 -45.776073 0.950249 1.186078 -1.000003 -0.0 0.0 
0.0 0.0 0.0 0.0 -0.0 0.0 -11.970808 47.201988 183.921204 83.053917 -52.765335 99.223389 9.804427 1.592467 -0.963218 -4.78446 -0.53167 -2.500663 27.365597 5.305972 -2.000184 15.804503 -3.044525 3.496868 -2.634137 -0.743118 0.64862 -33.432491 -2.004258 1.428361 7e-06 -0.0 0.0 -0.205735 -0.046251 0.059706 -0.055979 -0.0983 0.123806 -0.055494 -0.000641 0.015793 -13.145597 -62.860458 16.281765 84.957237 -10.133315 -45.112701 14.127311 -0.173115 0.106349 42.607506 70.119301 40.266163 17.636627 -26.322735 52.411213 -19.46666 -14.395598 29.410395 0.0 -8.774822 -1e-06 16.061787 -18.084684 5.918992 -0.609777 -1.795654 -3.889329 -4.807088 -11.046813 -2.937852 4e-06 -20.976019 -2e-06 -5.019969 -25.03356 -4.031885 6e-06 -1e-06 2e-06 -10.634537 -5.686971 -3.565588 10.573275 -17.922955 -3.113902 2e-06 -13.821212 1e-06 -0.501775 -31.181505 -4.027019 -10.934526 -59.01535 7.059302 -13.982717 -7.150198 -2.875044 13.772732 -8.401496 -3.218242 0.347734 -34.211555 0.771653 -0.963029 -17.733372 2.62102 -0.0 -0.0 0.0 -17.346422 -20.095221 -4.201784 21.757561 -1.638375 3.866429 2e-06 -6.338824 0.0 -1.697589 -22.591749 -6.194008 -0.0 -5e-06 -3e-06 179.536346 -81.514435 10.709338 82.887932 -25.601145 -36.343689 44.800694 -0.239791 -0.137224 63.728931 66.671051 80.74025 22.182117 -20.375898 49.933323 -16.701811 -16.74353 28.476528 -0.0 -12.690601 -1e-06 17.507006 -18.477196 1.909062 -0.10592 -1.513857 -4.275881 -5.039041 -5.612868 -2.953556 5e-06 -11.020523 -1e-06 -6.111298 -15.895334 -3.840472 -1e-06 1e-06 -2e-06 -10.283371 -5.680289 -4.341837 11.028296 -11.302405 -2.372633 -1.38427 -14.238581 -6.320122 -0.625437 -26.924187 -3.827603 -4.081065 -50.165459 -4.68722 -13.708526 -7.363478 -3.720938 18.14115 -14.052739 -3.242674 4e-06 -18.787271 -0.0 -0.429711 -8.456045 2.555504 -0.0 -0.0 1e-06 -15.923539 -20.094481 -5.473584 30.419218 -7.190827 1.735928 3e-06 -8.162925 -1e-06 -1.861905 -22.861469 -6.167942 -0.0 -2e-06 -0.0 158.891464 -7.460523 3.982997 70.627266 -2.411674 0.615845 -65.672348 1.575979 23.318954 -42.143299 1.758768 1.079068 -0.999999 0.0 -0.0 -64.19574 -2.732627 4.370569 123.417534 0.530285 0.405453 -77.798981 9.969655 15.346912 -45.607704 0.948857 1.176823 -1.000001 -1e-06 1e-06 
0.0 0.0 0.0 0.0 -0.0 0.0 -12.555465 47.356792 184.600693 83.683243 -52.910244 99.935486 9.834478 1.250295 -1.169649 -4.898135 -0.810201 -2.84742 27.164019 4.865629 -2.678695 15.887644 -1.763774 3.557554 -2.633696 -0.748195 0.486463 -32.857994 -2.17525 1.143765 6e-06 -0.0 0.0 -0.211527 -0.047915 0.051668 -0.042687 -0.098581 0.118864 -0.041533 7e-05 0.001159 -11.17639 -62.437313 14.392042 84.700478 -10.395598 -43.968594 12.969277 -0.313648 0.074672 42.185032 70.209991 38.889389 17.636627 -26.322733 52.41119 -19.466665 -14.395596 29.410393 -0.0 -8.774821 -1e-06 15.912377 -18.115995 5.876593 -0.609777 -1.795654 -3.889326 -4.807089 -11.046809 -2.937849 5e-06 -20.976013 -1e-06 -5.019969 -25.033552 -4.031882 6e-06 -1e-06 1e-06 -10.634533 -5.68697 -3.565588 10.573272 -17.922951 -3.113901 3e-06 -13.821205 1e-06 -0.501777 -31.181498 -4.027014 -10.846359 -58.73801 6.848534 -13.982712 -7.150197 -2.875041 13.772728 -8.401493 -3.218242 0.347733 -34.211536 0.771654 -0.963029 -17.733366 2.621019 -0.0 1e-06 -0.0 -17.346416 -20.095215 -4.201782 21.757557 -1.638374 3.866428 2e-06 -6.338822 0.0 -1.697588 -22.591738 -6.194006 -1e-06 -6e-06 -2e-06 168.899658 -80.985367 20.835524 82.889084 -23.832262 -38.339359 52.625423 -0.074915 -0.372353 64.286919 63.57687 83.814796 22.182117 -20.375896 49.933327 -16.701811 -16.743528 28.47653 -3e-06 -12.690601 -0.0 17.541866 -18.577232 2.004843 -0.10592 -1.513855 -4.275882 -5.03904 -5.612872 -2.953557 3e-06 -11.020523 -1e-06 -6.1113 -15.89533 -3.840471 -0.0 0.0 -0.0 -10.283371 -5.680288 -4.34184 11.028294 -11.302404 -2.372632 -1.384269 -14.238579 -6.32012 -0.625437 -26.924185 -3.827603 -4.260082 -50.475517 -4.708803 -13.708526 -7.363477 -3.72094 18.141148 -14.052738 -3.242672 5e-06 -18.78727 -2e-06 -0.429713 -8.456042 2.555505 -0.0 -1e-06 1e-06 -15.923536 -20.094482 -5.473587 30.41921 -7.190826 1.735927 3e-06 -8.162922 0.0 -1.861905 -22.861467 -6.16794 -0.0 -1e-06 -1e-06 157.625031 -7.24996 3.69849 72.485443 -2.829708 0.730412 -65.433563 2.086979 22.599176 -37.769718 1.798616 1.16956 -0.999999 0.0 1e-06 -63.561558 -3.157238 3.612952 122.164818 0.450027 0.344252 -73.624245 10.362584 16.742025 -45.37262 0.949579 1.191215 -1.000002 1e-06 -1e-06 
